#!OML:ASF E:\Mandelcareful walks\Project 1\Capture day 1\Session 1\Subject1.ASF
:FULLY-SPECIFIED
:DEGREES
64
root 10.9546 16.8315 -1.24203 -160.187 -86.0703 163.46
lowerback -6.95407 -1.42225 -4.96455
upperback 1.25978 -1.54029 1.54601
thorax 5.40216 -0.943636 4.23279
lowerneck -14.741 -10.5905 -17.5624
upperneck 27.2485 -13.9988 9.28159
head 13.6398 -7.10411 4.07647
rclavicle -1.89839e-014 -1.19271e-014
rhumerus -28.1484 -7.16732 -83.4301
rradius 24.0552
rwrist -6.4667
rhand -11.1143 -30.6453
rfingers 7.12502
rthumb 14.9104 -60.0886
lclavicle -1.89839e-014 -1.19271e-014
lhumerus -27.3829 -6.51863 95.2995
lradius 21.9346
lwrist 7.42054
lhand -21.9417 -10.037
lfingers 7.12502
lthumb 4.46508 19.8959
rfemur -1.40905 6.36283 11.2899
rtibia 10.8021
rfoot -14.9321 -26.9218
rtoes 0.119923
lfemur -3.81382 -6.2386 -14.3484
ltibia 21.8361
lfoot -27.8251 27.8907
ltoes 4.66035
65
root 10.9524 16.83 -1.24171 -159.648 -86.0451 162.886
lowerback -6.97583 -1.43905 -4.98379
upperback 1.30788 -1.55884 1.53871
thorax 5.46774 -0.956034 4.23309
lowerneck -14.7863 -10.6307 -17.5759
upperneck 27.245 -14.0387 9.26644
head 13.6546 -7.12166 4.06193
rclavicle 6.26172e-015 5.56597e-015
rhumerus -28.0493 -7.28613 -83.3748
rradius 23.9389
rwrist -6.29532
rhand -11.1181 -30.4382
rfingers 7.12502
rthumb 14.9067 -59.8818
lclavicle 6.26172e-015 5.56597e-015
lhumerus -27.303 -6.47956 95.299
lradius 21.929
lwrist 7.56245
lhand -21.8778 -9.95351
lfingers 7.12502
lthumb 4.52673 19.9781
rfemur -1.32806 6.2562 11.2298
rtibia 10.7226
rfoot -14.9221 -26.7799
rtoes 0.349183
lfemur -3.78274 -6.38826 -14.4225
ltibia 21.8657
lfoot -27.9368 27.9965
ltoes 4.5824
66
root 10.952 16.8303 -1.24091 -159.767 -86.0381 163
lowerback -6.94236 -1.4662 -4.96708
upperback 1.31832 -1.60014 1.57453
thorax 5.46499 -0.976823 4.25679
lowerneck -14.9649 -10.6639 -17.5844
upperneck 27.3881 -14.0254 9.13482
head 13.7399 -7.12673 4.00663
rclavicle 5.19325e-015 -2.38542e-015
rhumerus -27.9851 -7.16042 -83.3415
rradius 23.8998
rwrist -6.35639
rhand -11.1029 -30.3953
rfingers 7.12502
rthumb 14.9214 -59.8378
lclavicle 5.19325e-015 -2.38542e-015
lhumerus -27.2089 -6.25625 95.2647
lradius 21.852
lwrist 7.37854
lhand -21.7923 -9.85252
lfingers 7.12502
lthumb 4.60929 20.0773
rfemur -1.28527 6.3246 11.2345
rtibia 10.6334
rfoot -14.9759 -26.8582
rtoes 1.03424
lfemur -3.79112 -6.49173 -14.4342
ltibia 21.8962
lfoot -28.0353 28.0363
ltoes 4.42774
67
root 10.9533 16.8335 -1.24071 -160.606 -86.0703 163.877
lowerback -6.90297 -1.48529 -4.91587
upperback 1.30348 -1.63552 1.63042
thorax 5.43107 -0.99264 4.28312
lowerneck -15.0775 -10.7224 -17.6783
upperneck 27.4268 -14.0757 9.16229
head 13.8004 -7.14984 4.01679
rclavicle -1.01877e-015 -2.78299e-015
rhumerus -27.9562 -6.99092 -83.3274
rradius 23.9167
rwrist -6.44206
rhand -10.9598 -30.5261
rfingers 7.12502
rthumb 15.0592 -59.9584
lclavicle -1.01877e-015 -2.78299e-015
lhumerus -27.1608 -6.04478 95.2388
lradius 21.8082
lwrist 7.07658
lhand -21.6896 -9.80001
lfingers 7.12502
lthumb 4.70852 20.1277
rfemur -1.31609 6.45112 11.3147
rtibia 10.6048
rfoot -14.8706 -27.0174
rtoes 0.855907
lfemur -3.8452 -6.38854 -14.3394
ltibia 21.905
lfoot -27.9915 27.9179
ltoes 4.4898
68
root 10.9538 16.8352 -1.2403 -161.118 -86.0769 164.415
lowerback -6.91155 -1.46918 -4.87675
upperback 1.294 -1.61749 1.63566
thorax 5.42278 -0.98217 4.26857
lowerneck -14.8761 -10.7359 -17.7634
upperneck 27.2198 -14.1533 9.37144
head 13.7101 -7.17177 4.10438
rclavicle -1.44119e-015 -4.37326e-015
rhumerus -28.0014 -6.98309 -83.3371
rradius 23.9646
rwrist -6.47114
rhand -10.8563 -30.6504
rfingers 7.12502
rthumb 15.1589 -60.0752
lclavicle -1.44119e-015 -4.37326e-015
lhumerus -27.1786 -6.15107 95.2698
lradius 21.7944
lwrist 7.09137
lhand -21.7851 -9.96149
lfingers 7.12502
lthumb 4.61632 19.9682
rfemur -1.32812 6.40751 11.3502
rtibia 10.5716
rfoot -14.7133 -26.9951
rtoes 0.548138
lfemur -3.88104 -6.26384 -14.2813
ltibia 21.9165
lfoot -27.901 27.8385
ltoes 4.57524
69
root 10.9527 16.8333 -1.23958 -160.847 -86.0409 164.104
lowerback -6.86959 -1.45096 -4.89583
upperback 1.28633 -1.59271 1.6208
thorax 5.38818 -0.969161 4.26743
lowerneck -14.7626 -10.7234 -17.7623
upperneck 27.2041 -14.1692 9.39962
head 13.6846 -7.18092 4.11698
rclavicle -1.18028e-014 8.74653e-015
rhumerus -28.1063 -7.05401 -83.3247
rradius 24.0175
rwrist -6.42549
rhand -10.8764 -30.6724
rfingers 7.12502
rthumb 15.1395 -60.0986
lclavicle -1.18028e-014 8.74653e-015
lhumerus -27.2114 -6.22607 95.2823
lradius 21.8311
lwrist 7.11672
lhand -21.7509 -9.73925
lfingers 7.12502
lthumb 4.64934 20.1897
rfemur -1.26873 6.34836 11.3127
rtibia 10.5312
rfoot -14.7575 -26.9193
rtoes 0.773343
lfemur -3.84669 -6.20807 -14.3165
ltibia 21.9332
lfoot -27.8456 27.8399
ltoes 4.48061
70
root 10.9519 16.8309 -1.23926 -160.577 -86.0046 163.773
lowerback -6.78145 -1.43593 -4.93579
upperback 1.28428 -1.57343 1.62181
thorax 5.33504 -0.959498 4.29485
lowerneck -14.7668 -10.7057 -17.7003
upperneck 27.2908 -14.144 9.30612
head 13.7033 -7.17708 4.07588
rclavicle 2.64259e-014 -5.56597e-015
rhumerus -28.1883 -7.24239 -83.2599
rradius 24.0336
rwrist -6.27002
rhand -10.8965 -30.5709
rfingers 7.12502
rthumb 15.1202 -59.9986
lclavicle 2.64259e-014 -5.56597e-015
lhumerus -27.2221 -6.19535 95.2738
lradius 21.9108
lwrist 7.09716
lhand -21.4773 -9.30252
lfingers 7.12502
lthumb 4.91345 20.6205
rfemur -1.21269 6.40191 11.2816
rtibia 10.5311
rfoot -14.8994 -26.923
rtoes 0.945184
lfemur -3.78212 -6.17072 -14.3581
ltibia 21.9386
lfoot -27.8229 27.8356
ltoes 4.43228
71
root 10.9533 16.8306 -1.23882 -160.694 -86.0147 163.885
lowerback -6.77611 -1.42936 -4.93056
upperback 1.31119 -1.5657 1.63384
thorax 5.3597 -0.957003 4.30538
lowerneck -14.8155 -10.699 -17.6436
upperneck 27.3114 -14.1237 9.252
head 13.7085 -7.16685 4.0478
rclavicle -7.57867e-015 1.39149e-014
rhumerus -28.1871 -7.40609 -83.2157
rradius 24.0374
rwrist -6.1919
rhand -10.9418 -30.4808
rfingers 7.12502
rthumb 15.0765 -59.9117
lclavicle -7.57867e-015 1.39149e-014
lhumerus -27.1763 -6.32265 95.3138
lradius 21.957
lwrist 7.28105
lhand -21.3998 -9.18394
lfingers 7.12502
lthumb 4.98834 20.7373
rfemur -1.20657 6.41952 11.2901
rtibia 10.5225
rfoot -14.9361 -26.9116
rtoes 0.957431
lfemur -3.78187 -6.17948 -14.3528
ltibia 21.9497
lfoot -27.8397 27.8236
ltoes 4.50087
72
root 10.9563 16.8312 -1.23678 -160.78 -86.01 164.014
lowerback -6.80815 -1.44585 -4.91504
upperback 1.33115 -1.58911 1.66542
thorax 5.40213 -0.970283 4.32645
lowerneck -14.9284 -10.6835 -17.6492
upperneck 27.3867 -14.0613 9.18131
head 13.7481 -7.14486 4.02931
rclavicle 7.70291e-015 -3.57812e-015
rhumerus -28.1455 -7.4054 -83.1865
rradius 24.0367
rwrist -6.19898
rhand -10.9804 -30.3583
rfingers 7.12502
rthumb 15.0394 -59.7921
lclavicle 7.70291e-015 -3.57812e-015
lhumerus -27.143 -6.38064 95.377
lradius 22.0057
lwrist 7.39309
lhand -21.5453 -9.23412
lfingers 7.12502
lthumb 4.84787 20.6904
rfemur -1.27178 6.2618 11.2725
rtibia 10.5269
rfoot -14.741 -26.7499
rtoes 0.708689
lfemur -3.8334 -6.21656 -14.3568
ltibia 21.9563
lfoot -27.8155 27.881
ltoes 4.29897
73
root 10.9596 16.8328 -1.234 -160.923 -85.9779 164.193
lowerback -6.82355 -1.43075 -4.86438
upperback 1.34871 -1.57321 1.6784
thorax 5.42634 -0.962103 4.31295
lowerneck -15.072 -10.668 -17.5968
upperneck 27.5161 -13.9971 9.04957
head 13.8059 -7.12356 3.97682
rclavicle -3.05383e-014 1.23246e-014
rhumerus -28.0766 -7.36049 -83.1692
rradius 24.0021
rwrist -6.31077
rhand -10.9494 -30.1819
rfingers 7.12502
rthumb 15.0692 -59.6134
lclavicle -3.05383e-014 1.23246e-014
lhumerus -27.1235 -6.38736 95.4117
lradius 22.0598
lwrist 7.24744
lhand -21.6044 -9.26138
lfingers 7.12502
lthumb 4.79081 20.6645
rfemur -1.38102 6.00973 11.2411
rtibia 10.59
rfoot -14.3992 -26.5238
rtoes 0.0268396
lfemur -3.8748 -6.19737 -14.3627
ltibia 21.9385
lfoot -27.7387 27.9521
ltoes 4.08594
74
root 10.9632 16.8335 -1.23258 -160.711 -85.9492 163.965
lowerback -6.78762 -1.39629 -4.85514
upperback 1.39414 -1.52834 1.66421
thorax 5.44794 -0.940907 4.29837
lowerneck -15.0981 -10.6152 -17.4806
upperneck 27.5075 -13.9137 8.96426
head 13.775 -7.084 3.94122
rclavicle -2.08475e-014 9.54166e-015
rhumerus -27.972 -7.3213 -83.196
rradius 23.9742
rwrist -6.40109
rhand -10.7416 -30.4026
rfingers 7.12502
rthumb 15.2694 -59.819
lclavicle -2.08475e-014 9.54166e-015
lhumerus -27.0834 -6.44601 95.4014
lradius 22.1238
lwrist 7.16585
lhand -21.5967 -9.48702
lfingers 7.12502
lthumb 4.79824 20.4386
rfemur -1.41378 5.83054 11.1939
rtibia 10.6186
rfoot -14.2237 -26.3658
rtoes -0.447667
lfemur -3.8758 -6.16552 -14.3875
ltibia 21.9262
lfoot -27.755 27.9376
ltoes 4.32598
75
root 10.9701 16.8323 -1.22859 -159.544 -85.8906 162.75
lowerback -6.60671 -1.39485 -4.94416
upperback 1.4029 -1.52715 1.6635
thorax 5.35693 -0.941034 4.35085
lowerneck -15.0163 -10.4662 -17.4455
upperneck 27.4466 -13.6983 8.9338
head 13.69 -6.99347 3.97222
rclavicle -3.40419e-015 9.93923e-015
rhumerus -27.9445 -7.21342 -83.2229
rradius 23.9651
rwrist -6.38325
rhand -10.5482 -30.7503
rfingers 7.12502
rthumb 15.4557 -60.1524
lclavicle -3.40419e-015 9.93923e-015
lhumerus -27.1065 -6.37804 95.3833
lradius 22.244
lwrist 7.24811
lhand -21.7655 -9.95672
lfingers 7.12502
lthumb 4.63524 19.9726
rfemur -1.43462 5.38826 11.0267
rtibia 10.6361
rfoot -14.096 -25.9429
rtoes -0.295945
lfemur -3.84868 -6.18142 -14.5199
ltibia 21.912
lfoot -27.7672 27.9681
ltoes 4.48492
76
root 10.9835 16.8349 -1.22164 -159.871 -85.8891 163.062
lowerback -6.26294 -1.40034 -4.88093
upperback 1.34603 -1.5598 1.71608
thorax 5.10495 -0.948545 4.37214
lowerneck -15.1252 -10.2938 -17.4044
upperneck 27.6054 -13.3984 8.76872
head 13.7129 -6.87926 3.95943
rclavicle 1.28713e-014 -1.55052e-014
rhumerus -28.0041 -7.00734 -83.23
rradius 23.9713
rwrist -6.54359
rhand -10.6761 -30.6637
rfingers 7.12502
rthumb 15.3325 -60.0753
lclavicle 1.28713e-014 -1.55052e-014
lhumerus -27.168 -6.2403 95.396
lradius 22.3729
lwrist 7.28273
lhand -22.0906 -10.2306
lfingers 7.12502
lthumb 4.32127 19.7053
rfemur -1.53437 4.75599 10.968
rtibia 10.6913
rfoot -13.8389 -25.3752
rtoes -0.120329
lfemur -3.87071 -6.12758 -14.5245
ltibia 21.8867
lfoot -27.604 28.0232
ltoes 4.31685
